<svg xmlns="http://www.w3.org/2000/svg" width="1400" height="465" viewBox="0 0 1400 465" version="1.1">
	<path d="M 119.354 6.649 C 118.174 6.903, 116.417 7.987, 115.449 9.056 C 114.482 10.125, 113.119 11, 112.422 11 C 110.273 11, 105.154 15.929, 101.348 21.664 C 97.953 26.778, 97.713 27.655, 97.610 35.358 C 97.486 44.601, 98.081 45.966, 105.867 54.289 C 112.655 61.546, 118.663 64.002, 129.596 63.990 C 136.947 63.982, 139.423 63.551, 143.792 61.517 C 149.702 58.765, 154.557 54.089, 158.712 47.147 C 161.093 43.168, 161.493 41.420, 161.496 34.980 C 161.500 27.956, 161.252 27.087, 157.743 21.801 C 153.978 16.128, 151.947 14.199, 144.500 9.218 C 140.932 6.833, 139.473 6.524, 131 6.365 C 125.775 6.266, 120.534 6.394, 119.354 6.649 M 125.471 18.812 C 120.356 20.546, 115.991 25.222, 114.410 30.662 C 112.976 35.595, 112.978 36.486, 114.431 40.752 C 115.308 43.326, 117.458 46.909, 119.209 48.716 C 122.219 51.821, 122.779 52, 129.500 52 C 136.212 52, 136.781 51.819, 139.729 48.750 C 141.446 46.962, 143.605 43.594, 144.528 41.264 C 145.974 37.615, 146.035 36.298, 144.974 31.764 C 143.456 25.273, 143.225 24.853, 139.467 21.718 C 136.285 19.063, 129.120 17.575, 125.471 18.812 M 129 79.639 C 126.525 82.144, 122.475 85.163, 120 86.347 C 115.765 88.373, 115.459 88.794, 114.802 93.500 C 114.419 96.250, 113.014 101.425, 111.682 105 C 108.262 114.174, 107.066 117.475, 104.076 126 C 102.629 130.125, 100.730 134.850, 99.856 136.500 C 98.982 138.150, 97.952 141.242, 97.566 143.371 C 97.180 145.501, 95.818 149.326, 94.540 151.871 C 93.262 154.417, 91.442 158.750, 90.495 161.500 C 84.933 177.660, 83.815 180.633, 82.605 182.479 C 81.870 183.601, 80.746 186.959, 80.106 189.941 C 79.466 192.924, 78.393 196.022, 77.722 196.827 C 77.050 197.632, 75.543 201.038, 74.373 204.395 C 69.016 219.774, 66.983 225.104, 65.667 227.220 C 64.888 228.474, 63.743 231.615, 63.123 234.201 C 62.503 236.786, 60.872 241.016, 59.498 243.600 C 58.124 246.184, 57 249.025, 57 249.914 C 57 250.802, 56.034 253.323, 54.853 255.515 C 53.672 257.707, 52.126 261.683, 51.417 264.351 C 50.708 267.018, 49.466 269.943, 48.657 270.851 C 47.848 271.758, 46.658 274.525, 46.012 277 C 45.367 279.475, 43.969 282.999, 42.906 284.831 C 41.842 286.662, 40.503 290.255, 39.930 292.814 C 39.356 295.374, 38.275 298.150, 37.527 298.984 C 36.780 299.818, 35.449 302.300, 34.570 304.500 C 32.153 310.553, 23.043 315.996, 15.326 315.998 C 12.481 315.999, 7.868 316.527, 5.076 317.172 L 0 318.343 0 322.600 L 0 326.856 5.250 327.476 C 8.138 327.818, 26.250 327.962, 45.500 327.798 L 80.500 327.500 80.761 323.500 C 81.166 317.287, 80.325 316.712, 69.811 316.020 C 64.671 315.682, 59.910 315.063, 59.232 314.644 C 57.235 313.409, 57.728 302.764, 60.056 296.858 C 61.187 293.990, 62.787 288.730, 63.613 285.170 C 64.438 281.610, 65.933 277.078, 66.934 275.098 C 67.935 273.119, 69.259 269.115, 69.877 266.200 C 70.495 263.285, 71.738 259.473, 72.641 257.728 C 73.543 255.983, 74.874 252.016, 75.598 248.911 C 76.827 243.640, 80.545 235.458, 83.120 232.355 C 84.029 231.260, 91.184 231.003, 120.372 231.015 C 140.243 231.024, 157.081 231.399, 157.792 231.850 C 159.486 232.925, 164.836 245.941, 166.601 253.281 C 167.366 256.461, 168.819 260.736, 169.830 262.781 C 170.841 264.827, 172.235 269.133, 172.928 272.352 C 173.622 275.570, 175.037 280.070, 176.073 282.352 C 177.108 284.633, 177.966 287.526, 177.978 288.780 C 177.990 290.034, 179.125 293.733, 180.500 297 C 183.425 303.950, 183.865 312.037, 181.427 314.061 C 180.526 314.808, 176.269 315.554, 171.470 315.806 C 161.560 316.326, 159.689 317.627, 160.184 323.652 L 160.500 327.500 204.296 327.761 C 233.350 327.933, 248.750 327.669, 250.046 326.975 C 252.166 325.841, 252.574 322.940, 251.021 320.039 C 249.785 317.729, 244.907 316.002, 239.601 315.994 C 232.869 315.985, 228.685 314.278, 224.332 309.764 C 220.329 305.614, 213.010 292.817, 212.990 289.935 C 212.985 289.146, 211.910 286.202, 210.602 283.392 C 209.294 280.583, 207.906 276.308, 207.517 273.892 C 207.128 271.477, 205.937 267.984, 204.869 266.132 C 203.802 264.280, 202.441 260.490, 201.844 257.710 C 201.248 254.930, 199.689 250.641, 198.380 248.179 C 197.071 245.717, 195.996 242.532, 195.990 241.101 C 195.985 239.670, 194.911 236.204, 193.605 233.398 C 192.298 230.592, 190.710 225.873, 190.074 222.911 C 189.439 219.949, 188.283 216.555, 187.506 215.369 C 186.729 214.183, 185.401 210.230, 184.556 206.586 C 183.711 202.941, 182.329 198.905, 181.484 197.616 C 180.640 196.328, 179.100 192.399, 178.062 188.887 C 176.280 182.856, 175.441 180.326, 170.801 167 C 169.748 163.975, 167.992 158.398, 166.900 154.608 C 165.808 150.817, 164.258 146.779, 163.457 145.635 C 162.656 144.491, 161.989 142.643, 161.976 141.527 C 161.963 140.412, 160.799 136.800, 159.389 133.500 C 157.979 130.200, 156.193 124.672, 155.421 121.216 C 154.649 117.761, 153.338 113.621, 152.509 112.016 C 151.679 110.412, 150.495 106.715, 149.877 103.800 C 149.259 100.885, 147.970 96.925, 147.013 95 C 146.055 93.075, 144.709 89.111, 144.022 86.192 C 142.575 80.043, 138.779 74.981, 135.661 75.042 C 134.459 75.065, 131.502 77.106, 129 79.639 M 195.082 81.166 C 192.706 82.044, 191.850 84.476, 192.924 87.300 C 194.272 90.846, 195.983 91.703, 203.207 92.454 C 208.482 93.001, 210.724 93.784, 213.707 96.119 C 218.200 99.635, 224 106.053, 224 107.507 C 224 108.073, 225.091 110.141, 226.424 112.102 C 227.757 114.064, 229.157 117.323, 229.537 119.343 C 229.916 121.364, 231.050 124.065, 232.058 125.346 C 233.065 126.627, 234.420 129.885, 235.069 132.587 C 235.718 135.289, 237.254 139.300, 238.483 141.500 C 239.711 143.700, 241.041 146.850, 241.436 148.500 C 241.832 150.150, 242.743 152.175, 243.461 153 C 244.179 153.825, 245.507 157.087, 246.411 160.249 C 247.315 163.411, 249.168 168.091, 250.528 170.648 C 251.887 173.205, 253 175.965, 253 176.781 C 253 177.597, 253.859 179.667, 254.909 181.382 C 255.958 183.097, 257.354 186.517, 258.010 188.983 C 258.666 191.449, 260.227 195.499, 261.478 197.983 C 262.730 200.467, 264.065 203.941, 264.446 205.703 C 264.827 207.465, 265.949 209.940, 266.939 211.203 C 267.929 212.466, 269.067 215.075, 269.467 217 C 269.867 218.925, 271.050 221.988, 272.097 223.807 C 273.144 225.626, 274.523 229.226, 275.162 231.807 C 275.800 234.388, 277.375 238.067, 278.662 239.982 C 279.948 241.897, 281 244.379, 281 245.497 C 281 246.615, 281.953 249.308, 283.118 251.482 C 284.284 253.656, 285.902 257.699, 286.716 260.467 C 287.529 263.235, 288.855 266.242, 289.661 267.149 C 290.468 268.057, 291.730 271.083, 292.467 273.874 C 293.203 276.666, 294.712 280.423, 295.819 282.225 C 296.926 284.026, 298.156 287.300, 298.551 289.500 C 298.946 291.700, 300.334 295.340, 301.635 297.588 C 302.936 299.836, 304 302.461, 304 303.421 C 304 304.381, 305.314 308.449, 306.920 312.460 C 308.526 316.471, 310.167 321.934, 310.567 324.600 C 311.408 330.204, 315.424 335, 319.277 335 C 322.760 335, 326.590 331.001, 327.438 326.479 C 327.839 324.342, 328.988 320.984, 329.992 319.016 C 330.995 317.049, 332.581 312.810, 333.515 309.596 C 334.450 306.381, 336.022 302.345, 337.010 300.626 C 337.998 298.907, 339.129 295.925, 339.524 294 C 339.919 292.075, 341.269 288.700, 342.523 286.500 C 343.778 284.300, 345.129 280.925, 345.526 279 C 345.924 277.075, 347.046 274.371, 348.021 272.991 C 348.996 271.611, 350.285 268.686, 350.885 266.491 C 351.486 264.296, 353.108 260.286, 354.489 257.581 C 355.870 254.875, 357 251.989, 357 251.168 C 357 250.347, 358.061 247.836, 359.358 245.588 C 360.655 243.340, 362.011 240.274, 362.371 238.776 C 362.731 237.278, 364.144 234.402, 365.513 232.386 C 366.881 230.370, 368.002 227.996, 368.004 227.110 C 368.006 226.225, 369.354 222.800, 371 219.500 C 372.646 216.200, 373.994 212.800, 373.996 211.944 C 373.998 211.089, 375.080 208.925, 376.400 207.136 C 377.719 205.347, 379.092 202.321, 379.451 200.411 C 379.809 198.501, 381.204 195.314, 382.551 193.330 C 383.898 191.345, 385 189.100, 385 188.342 C 385 187.583, 386.350 184.432, 388 181.340 C 389.650 178.248, 391 175.098, 391 174.340 C 391 173.582, 392.350 170.432, 394 167.340 C 395.650 164.248, 397 160.942, 397 159.994 C 397 159.046, 397.910 157.113, 399.021 155.700 C 400.133 154.287, 401.720 151.211, 402.548 148.865 C 403.375 146.519, 404.718 143.864, 405.531 142.966 C 406.344 142.068, 407.683 139.062, 408.508 136.286 C 409.332 133.511, 410.636 130.717, 411.405 130.079 C 412.174 129.440, 413.102 127.729, 413.467 126.276 C 413.831 124.823, 415.214 122.346, 416.539 120.772 C 417.863 119.197, 419.427 116.130, 420.012 113.955 C 420.598 111.780, 421.502 110, 422.022 110 C 422.541 110, 424.106 107.750, 425.500 105 C 426.894 102.250, 428.364 99.991, 428.767 99.981 C 429.170 99.970, 431.231 98.450, 433.347 96.603 C 437.172 93.265, 441.618 92, 449.529 92 C 451.316 92, 453.826 91.152, 455.107 90.115 C 457.388 88.268, 457.506 88.268, 460.953 90.115 C 463.030 91.228, 466.524 92.010, 469.485 92.024 C 478.183 92.065, 482.134 93.510, 486.674 98.310 C 489.081 100.855, 491.310 104.438, 491.939 106.774 C 492.700 109.599, 492.950 139.672, 492.765 206.162 L 492.500 301.500 489.466 306.417 C 484.372 314.674, 483.671 314.958, 463.321 316.982 C 463.223 316.992, 462.436 317.707, 461.571 318.571 C 459.712 320.431, 459.501 325.101, 461.200 326.800 C 462.099 327.699, 474.126 328, 509.165 328 C 553.843 328, 555.974 327.916, 556.932 326.128 C 558.100 323.944, 556.736 318.085, 554.768 316.836 C 554.071 316.393, 550.800 316.021, 547.500 316.010 C 535.566 315.968, 530.330 312.726, 527.020 303.330 C 525.005 297.612, 524.966 295.724, 524.947 204.865 C 524.929 121.009, 525.087 111.656, 526.614 106.166 C 529.562 95.562, 534.998 92.230, 549.628 92.060 C 552.469 92.027, 555.194 91.443, 555.740 90.750 C 557.573 88.423, 557.992 84.371, 556.597 82.463 C 555.298 80.688, 553.107 80.617, 508.368 80.917 C 482.591 81.090, 459.925 81.223, 458 81.214 C 456.075 81.204, 437.790 81.093, 417.367 80.967 C 396.943 80.841, 379.731 81.048, 379.117 81.428 C 377.609 82.360, 377.698 88.238, 379.250 90.190 C 380.087 91.243, 382.979 91.972, 388 92.396 C 398.338 93.270, 400.520 94.975, 400.438 102.116 C 400.377 107.371, 398.698 112.471, 393.399 123.500 C 392.077 126.250, 390.603 130.377, 390.122 132.672 C 389.641 134.966, 388.339 138.120, 387.227 139.681 C 386.116 141.241, 384.668 144.539, 384.010 147.009 C 383.352 149.479, 382.239 152.175, 381.535 153 C 380.832 153.825, 379.455 156.975, 378.475 160 C 377.495 163.025, 376.124 166.400, 375.428 167.500 C 374.732 168.600, 373.633 171.509, 372.985 173.965 C 372.337 176.420, 370.951 179.519, 369.904 180.850 C 368.857 182.181, 368 184.063, 368 185.033 C 368 186.003, 366.694 189.279, 365.098 192.313 C 363.502 195.348, 361.885 199.331, 361.504 201.165 C 361.123 202.999, 359.778 206.075, 358.514 208 C 357.251 209.925, 355.931 213.142, 355.582 215.150 C 355.233 217.157, 354.285 219.348, 353.477 220.019 C 352.668 220.691, 351.383 223.323, 350.621 225.870 C 349.858 228.416, 348.057 232.705, 346.617 235.399 C 345.178 238.093, 344 241.268, 344 242.455 C 344 243.641, 342.875 246.136, 341.500 248 C 340.125 249.864, 339 252.138, 339 253.054 C 339 253.969, 337.650 257.248, 336 260.340 C 334.350 263.432, 333 266.785, 333 267.790 C 333 268.795, 332.361 270.491, 331.581 271.559 C 330.192 273.458, 330.103 273.446, 327.486 271 C 324.340 268.061, 322 263.875, 322 261.189 C 322 260.139, 320.921 257.690, 319.603 255.747 C 318.285 253.804, 316.886 250.704, 316.495 248.857 C 316.104 247.011, 314.920 244.076, 313.864 242.336 C 312.808 240.596, 311.237 236.771, 310.374 233.836 C 309.511 230.901, 308.216 227.825, 307.496 227 C 306.775 226.175, 305.705 223.700, 305.118 221.500 C 304.530 219.300, 303.340 216.491, 302.473 215.257 C 301.606 214.023, 300.221 210.740, 299.396 207.962 C 298.571 205.183, 296.794 200.838, 295.448 198.306 C 294.102 195.774, 293 192.975, 293 192.086 C 293 191.198, 292.047 188.692, 290.882 186.518 C 289.716 184.344, 288.095 180.301, 287.280 177.533 C 286.464 174.765, 285.389 172.001, 284.893 171.391 C 284.396 170.781, 283.131 167.788, 282.083 164.740 C 281.034 161.692, 279.505 158.141, 278.686 156.849 C 277.867 155.557, 276.872 152.925, 276.475 151 C 276.078 149.075, 274.739 145.475, 273.500 143 C 272.261 140.525, 270.917 136.925, 270.515 135 C 270.113 133.075, 268.971 130.150, 267.976 128.500 C 266.981 126.850, 265.468 122.800, 264.613 119.500 C 263.758 116.200, 262.145 111.717, 261.029 109.539 C 258.713 105.017, 258.372 98.242, 260.325 95.570 C 261.307 94.227, 264.035 93.463, 270.868 92.618 C 276.949 91.867, 280.406 90.972, 281.028 89.989 C 282.364 87.875, 282.224 82.256, 280.812 81.384 C 279.325 80.465, 197.543 80.257, 195.082 81.166 M 577.808 81.039 C 576.004 81.461, 575.433 82.368, 575.195 85.194 C 574.813 89.729, 577.613 92, 583.586 92 C 585.864 92, 590.151 92.450, 593.114 92.999 C 597.609 93.833, 599.099 94.692, 602.124 98.197 C 604.376 100.806, 606.174 104.241, 606.874 107.274 C 607.666 110.704, 608 139.695, 608 204.895 C 608 307.499, 608.176 304.529, 601.713 310.794 C 598.008 314.385, 593.582 316, 587.448 316 C 585.212 316, 582.673 316.563, 581.807 317.250 C 579.832 318.817, 578.881 323.909, 580.128 326.239 C 581.006 327.880, 584.130 328, 626 328 C 669.267 328, 670.968 327.929, 671.956 326.082 C 673.293 323.584, 672.185 318.163, 670.118 317.086 C 669.228 316.622, 664.620 316.046, 659.879 315.807 C 652.077 315.413, 650.889 315.078, 647.379 312.284 C 644.420 309.929, 642.966 307.646, 641.250 302.661 C 639.062 296.305, 639 295.016, 639 255.797 C 639 218.387, 639.135 215.217, 640.861 211.984 C 643.402 207.227, 647.611 206.787, 653.341 210.680 C 657.614 213.582, 675.403 231.243, 694.135 251.181 C 742.242 302.382, 749.914 311.486, 747.218 314.182 C 746.723 314.677, 743.208 315.551, 739.408 316.123 C 735.266 316.747, 732 317.807, 731.250 318.773 C 729.451 321.089, 729.711 324.429, 731.839 326.355 C 733.497 327.855, 737.952 328.015, 776.964 327.978 C 803.930 327.952, 820.956 327.558, 822.125 326.933 C 824.701 325.555, 824.493 321.402, 821.709 318.618 C 819.794 316.703, 817.967 316.224, 810.595 315.704 C 804.650 315.284, 800.913 314.503, 799.137 313.307 C 797.686 312.332, 794.908 310.803, 792.962 309.910 C 789.017 308.101, 775.536 294.937, 757.647 275.427 C 751.129 268.317, 743.254 259.762, 740.147 256.416 C 737.041 253.070, 730.900 246.345, 726.500 241.473 C 722.100 236.600, 715.913 229.939, 712.750 226.670 C 709.587 223.401, 707 220.417, 707 220.040 C 707 219.662, 704.628 216.911, 701.730 213.927 C 691.210 203.095, 683.201 193.191, 682.544 190.201 C 682.111 188.229, 682.416 186.097, 683.404 184.185 C 684.952 181.193, 695.861 169.737, 698.649 168.176 C 699.481 167.711, 704.204 163.544, 709.146 158.915 C 722.794 146.132, 747.423 123.639, 753.207 118.674 C 759.450 113.316, 769.508 105.794, 772.500 104.245 C 774.150 103.391, 775.953 102.075, 776.506 101.320 C 777.059 100.565, 779.899 99.318, 782.818 98.548 C 785.737 97.778, 789.285 96.388, 790.702 95.460 C 792.119 94.531, 796.696 93.347, 800.873 92.829 C 808.947 91.826, 811.426 90.425, 812.468 86.270 C 813.833 80.834, 813.752 80.823, 770.837 80.715 C 749.164 80.660, 730.884 80.954, 730.215 81.367 C 728.628 82.348, 728.651 88.155, 730.250 90.276 C 731.043 91.329, 733.835 92.220, 737.893 92.717 C 753.462 94.623, 750.925 98.048, 691.029 156 C 678.807 167.825, 666.263 179.975, 663.154 183 C 660.044 186.025, 656.320 189.175, 654.879 190 C 653.437 190.825, 651.040 192.362, 649.551 193.416 C 647.448 194.905, 646.255 195.124, 644.194 194.399 C 639.047 192.589, 638.946 191.658, 639.288 149.500 C 639.574 114.317, 639.789 109.988, 641.488 105.266 C 644.852 95.918, 650.815 92.170, 662.527 92.044 C 668.101 91.983, 671 89.745, 671 85.502 C 671 83.641, 670.504 81.811, 669.897 81.436 C 668.592 80.630, 581.172 80.253, 577.808 81.039 M 838.638 81.183 C 836.813 82.204, 836.441 87.086, 837.971 89.946 C 838.720 91.345, 840.718 91.926, 846.721 92.488 C 854.274 93.195, 854.635 93.351, 859.145 97.860 C 862.160 100.875, 864.186 103.975, 864.919 106.699 C 865.731 109.714, 865.971 137.851, 865.774 206.697 C 865.520 295.675, 865.375 302.749, 863.747 306 C 859.846 313.789, 858.239 314.893, 848.500 316.478 C 843.550 317.283, 838.195 318.067, 836.599 318.221 C 832.786 318.588, 829.070 323.302, 830.636 325.786 C 831.638 327.375, 838.016 327.546, 918.109 328.129 C 965.624 328.476, 1006.191 329.088, 1008.257 329.490 C 1011.013 330.026, 1012.677 329.786, 1014.500 328.592 C 1017.275 326.774, 1021.356 319.340, 1022.510 314 C 1022.926 312.075, 1024.090 308.962, 1025.097 307.082 C 1026.104 305.202, 1027.234 301.602, 1027.609 299.082 C 1027.984 296.562, 1029.350 291.677, 1030.645 288.227 C 1033.365 280.983, 1033.599 277.742, 1031.529 276.024 C 1029.717 274.521, 1022.762 274.213, 1022.294 275.617 C 1022.107 276.179, 1020.389 279.068, 1018.477 282.036 C 1016.565 285.004, 1015 287.932, 1015 288.542 C 1015 289.152, 1013.875 290.708, 1012.500 292 C 1011.125 293.292, 1009.998 294.833, 1009.995 295.424 C 1009.993 296.016, 1007.180 299.496, 1003.745 303.157 C 997.916 309.370, 997 309.948, 990 311.825 C 976.266 315.509, 971.975 316, 953.496 316 C 928.184 316, 921.403 315.013, 908.243 309.412 C 904.212 307.696, 901.249 302.989, 900.449 297.033 C 900.114 294.540, 899.180 290.406, 898.372 287.847 C 897.170 284.038, 896.958 276.727, 897.202 247.508 L 897.500 211.821 899.861 209.911 C 902.046 208.142, 904.107 208, 927.573 208 C 950.458 208, 953.440 208.194, 958.212 209.993 C 967.229 213.391, 968.814 215.310, 970.145 224.451 C 971.176 231.530, 971.720 232.846, 975.102 236.451 C 979.416 241.049, 981.024 240.809, 984.391 235.060 C 986.165 232.033, 986.196 231.291, 984.891 223.166 C 983.503 214.517, 983.834 188.560, 985.547 171.710 C 986.372 163.606, 984.859 161, 979.332 161 C 976.230 161, 975.793 161.412, 973.576 166.423 C 972.257 169.406, 970.670 175.119, 970.050 179.118 C 969.429 183.118, 968.454 186.953, 967.882 187.642 C 966.722 189.040, 960.935 191.182, 953.736 192.878 C 950.936 193.537, 939.461 194, 925.909 194 L 902.846 194 899.923 191.077 L 897 188.154 897 144.545 C 897 96.937, 897.234 94.732, 902.424 93.430 C 903.830 93.077, 918.822 92.966, 935.740 93.183 C 965.137 93.561, 966.687 93.677, 970.710 95.789 C 973.026 97.005, 975.925 98, 977.152 98 C 980.462 98, 991.568 109.700, 992.913 114.604 C 993.501 116.747, 995.264 121.650, 996.832 125.500 C 999.181 131.271, 1000.118 132.553, 1002.169 132.800 C 1005.583 133.211, 1008.949 130.158, 1009.114 126.500 C 1009.189 124.850, 1008.496 117.425, 1007.576 110 C 1006.656 102.575, 1005.634 93.464, 1005.306 89.752 C 1004.937 85.570, 1004.136 82.528, 1003.200 81.752 C 1002.021 80.774, 984.015 80.474, 920.983 80.383 C 873.679 80.314, 839.598 80.645, 838.638 81.183 M 1049.624 81.292 C 1046.609 82.297, 1045.767 84.258, 1046.980 87.448 C 1048.240 90.761, 1050.258 91.651, 1059.378 92.920 C 1063.829 93.539, 1068.345 94.812, 1069.851 95.873 C 1071.308 96.898, 1073.480 98.042, 1074.677 98.413 C 1075.875 98.785, 1077.773 100.531, 1078.896 102.294 C 1080.018 104.057, 1081.738 106.600, 1082.718 107.944 C 1084.397 110.247, 1084.500 115.770, 1084.500 203.444 C 1084.500 303.858, 1084.566 302.534, 1079.193 310.163 C 1076.085 314.577, 1072.342 315.986, 1063.705 315.994 C 1058.889 315.999, 1057.494 316.415, 1055.455 318.455 C 1052.495 321.414, 1052.244 325.525, 1054.934 326.965 C 1056.175 327.629, 1071.194 328, 1096.823 328 C 1133.492 328, 1136.957 327.855, 1138.955 326.238 C 1140.793 324.749, 1140.973 324.058, 1140.110 321.790 C 1138.518 317.603, 1135.339 316.292, 1125.149 315.622 C 1117.016 315.088, 1115.387 314.665, 1112.649 312.380 C 1108.363 308.803, 1108.380 308.843, 1105.885 295.918 C 1103.773 284.982, 1103.655 281.356, 1103.090 210 C 1102.766 169.025, 1102.853 134.713, 1103.285 133.750 C 1104.605 130.808, 1106.274 131.751, 1112 138.674 C 1115.025 142.332, 1119.075 147.064, 1121 149.191 C 1122.925 151.318, 1125.477 154.283, 1126.671 155.779 C 1127.865 157.276, 1133.153 163.538, 1138.421 169.696 C 1143.690 175.853, 1148 181.131, 1148 181.423 C 1148 181.716, 1150.446 184.553, 1153.437 187.728 C 1161.922 196.738, 1162.676 197.589, 1176.267 213.500 C 1183.314 221.750, 1191.424 231.021, 1194.290 234.102 C 1197.155 237.183, 1200.850 241.399, 1202.500 243.470 C 1206.681 248.718, 1224.922 269.606, 1230.235 275.229 C 1231.739 276.821, 1233.314 278.725, 1233.735 279.460 C 1234.156 280.195, 1236.844 283.430, 1239.709 286.648 C 1242.574 289.867, 1251.441 300.375, 1259.413 310 C 1267.385 319.625, 1274.941 328.722, 1276.204 330.215 C 1278.675 333.138, 1282.712 334.535, 1284.778 333.184 C 1285.802 332.514, 1286.048 312.469, 1286.013 232.424 C 1285.968 128.248, 1286.333 117.218, 1290.214 105.306 C 1292.907 97.041, 1296.834 94.340, 1308.667 92.612 C 1317.276 91.355, 1318.440 90.671, 1319.638 86.165 C 1321.038 80.902, 1320.727 80.863, 1276.336 80.748 C 1253.815 80.689, 1234.851 80.974, 1234.194 81.380 C 1232.615 82.356, 1232.657 89.475, 1234.250 90.777 C 1234.938 91.338, 1239.441 92.122, 1244.258 92.518 C 1251.528 93.116, 1253.757 93.729, 1257.377 96.126 C 1261.116 98.603, 1262.112 100.047, 1264.367 106.257 C 1266.548 112.264, 1267.166 116.316, 1267.989 130 C 1269.054 147.694, 1269.373 260.005, 1268.370 263.750 C 1267.588 266.668, 1264.428 266.669, 1262.867 263.751 C 1262.205 262.514, 1258.149 257.950, 1253.854 253.608 C 1249.558 249.267, 1245.786 244.902, 1245.471 243.908 C 1245.156 242.915, 1244.133 241.827, 1243.199 241.491 C 1242.264 241.155, 1239.763 238.770, 1237.639 236.190 C 1235.516 233.611, 1231.241 228.649, 1228.139 225.164 C 1222.399 218.714, 1215.863 211.272, 1206 199.956 C 1200.581 193.738, 1192.613 184.945, 1186.250 178.159 C 1184.463 176.253, 1182.986 174.425, 1182.970 174.097 C 1182.953 173.768, 1180.425 170.800, 1177.352 167.500 C 1174.279 164.200, 1166.361 155.200, 1159.755 147.500 C 1153.149 139.800, 1146.901 132.600, 1145.869 131.500 C 1143.724 129.211, 1139.082 123.346, 1134 116.503 C 1132.075 113.910, 1129.585 110.824, 1128.467 109.645 C 1127.349 108.465, 1125.675 106.375, 1124.748 105 C 1123.820 103.625, 1121.697 100.700, 1120.030 98.500 C 1118.363 96.300, 1115.889 92.157, 1114.532 89.294 C 1110.587 80.971, 1111.318 81.150, 1079.788 80.791 C 1064.546 80.617, 1050.972 80.843, 1049.624 81.292 M 119.547 129.109 C 118.051 131.369, 116.142 135.531, 115.303 138.359 C 114.465 141.186, 112.929 145.170, 111.890 147.210 C 110.850 149.251, 110 151.771, 110 152.811 C 110 153.851, 108.903 156.765, 107.563 159.286 C 106.222 161.807, 104.657 166.403, 104.085 169.499 C 103.512 172.595, 102.186 176.219, 101.137 177.552 C 100.089 178.886, 98.919 182.119, 98.538 184.738 C 98.157 187.357, 96.990 190.971, 95.945 192.769 C 93.813 196.437, 91 206.443, 91 210.359 C 91 211.877, 91.792 213.354, 92.934 213.965 C 94.125 214.602, 104.862 215, 120.878 215 C 146.789 215, 146.899 214.991, 149.639 212.634 L 152.390 210.268 150.695 205.019 C 149.763 202.132, 149 199.203, 149 198.510 C 149 197.816, 147.939 194.830, 146.642 191.874 C 145.345 188.918, 143.957 184.721, 143.558 182.547 C 143.159 180.372, 142.026 176.997, 141.040 175.047 C 140.053 173.096, 138.743 169.123, 138.127 166.217 C 137.511 163.311, 136.143 159.240, 135.087 157.170 C 134.031 155.101, 132.850 151.628, 132.462 149.453 C 132.074 147.279, 130.924 144.117, 129.905 142.426 C 128.887 140.735, 127.538 136.910, 126.908 133.926 C 125.650 127.976, 124.380 125, 123.098 125 C 122.640 125, 121.042 126.849, 119.547 129.109" stroke="none" fill="black" fill-rule="evenodd"/>
</svg>